<mxfile host="app.diagrams.net" modified="2023-09-15T06:04:25.726Z" agent="Mozilla/5.0 (Windows NT 10.0; Win64; x64) AppleWebKit/537.36 (KHTML, like Gecko) Chrome/116.0.0.0 Safari/537.36" etag="gY75A49zTuE4WUT93R_O" version="21.7.5" type="github">
  <diagram name="Trang-1" id="qRXYGgHkFFlOy0iazW_o">
    <mxGraphModel dx="1500" dy="876" grid="0" gridSize="10" guides="1" tooltips="1" connect="1" arrows="1" fold="1" page="1" pageScale="1" pageWidth="827" pageHeight="1169" math="0" shadow="0">
      <root>
        <mxCell id="0" />
        <mxCell id="1" parent="0" />
        <mxCell id="uniD2NlgxdXFvCSoE5NA-1" value="Actor" style="shape=umlActor;verticalLabelPosition=bottom;verticalAlign=top;html=1;outlineConnect=0;" parent="1" vertex="1">
          <mxGeometry x="72" y="448" width="78" height="137" as="geometry" />
        </mxCell>
        <mxCell id="uniD2NlgxdXFvCSoE5NA-3" value="Actor" style="shape=umlActor;verticalLabelPosition=bottom;verticalAlign=top;html=1;outlineConnect=0;" parent="1" vertex="1">
          <mxGeometry x="695" y="455" width="78" height="130" as="geometry" />
        </mxCell>
        <mxCell id="uniD2NlgxdXFvCSoE5NA-10" value="Khách hàng" style="text;strokeColor=none;fillColor=none;html=1;fontSize=24;fontStyle=1;verticalAlign=middle;align=center;" parent="1" vertex="1">
          <mxGeometry x="50" y="395" width="100" height="40" as="geometry" />
        </mxCell>
        <mxCell id="uniD2NlgxdXFvCSoE5NA-13" value="Quản trị viên" style="text;strokeColor=none;fillColor=none;html=1;fontSize=24;fontStyle=1;verticalAlign=middle;align=center;" parent="1" vertex="1">
          <mxGeometry x="698" y="408" width="100" height="40" as="geometry" />
        </mxCell>
        <mxCell id="uniD2NlgxdXFvCSoE5NA-14" value="" style="ellipse;whiteSpace=wrap;html=1;" parent="1" vertex="1">
          <mxGeometry x="245" y="218" width="120" height="80" as="geometry" />
        </mxCell>
        <mxCell id="uniD2NlgxdXFvCSoE5NA-16" value="" style="ellipse;whiteSpace=wrap;html=1;" parent="1" vertex="1">
          <mxGeometry x="245" y="351" width="120" height="80" as="geometry" />
        </mxCell>
        <mxCell id="uniD2NlgxdXFvCSoE5NA-17" value="" style="ellipse;whiteSpace=wrap;html=1;" parent="1" vertex="1">
          <mxGeometry x="245" y="484" width="120" height="80" as="geometry" />
        </mxCell>
        <mxCell id="uniD2NlgxdXFvCSoE5NA-20" value="" style="ellipse;whiteSpace=wrap;html=1;" parent="1" vertex="1">
          <mxGeometry x="245" y="750" width="120" height="80" as="geometry" />
        </mxCell>
        <mxCell id="uniD2NlgxdXFvCSoE5NA-21" value="" style="ellipse;whiteSpace=wrap;html=1;" parent="1" vertex="1">
          <mxGeometry x="245" y="625" width="120" height="80" as="geometry" />
        </mxCell>
        <mxCell id="uniD2NlgxdXFvCSoE5NA-22" value="" style="ellipse;whiteSpace=wrap;html=1;" parent="1" vertex="1">
          <mxGeometry x="457" y="218" width="120" height="80" as="geometry" />
        </mxCell>
        <mxCell id="uniD2NlgxdXFvCSoE5NA-23" value="" style="ellipse;whiteSpace=wrap;html=1;" parent="1" vertex="1">
          <mxGeometry x="457" y="351" width="120" height="80" as="geometry" />
        </mxCell>
        <mxCell id="uniD2NlgxdXFvCSoE5NA-24" value="" style="ellipse;whiteSpace=wrap;html=1;" parent="1" vertex="1">
          <mxGeometry x="457" y="484" width="120" height="80" as="geometry" />
        </mxCell>
        <mxCell id="uniD2NlgxdXFvCSoE5NA-25" value="" style="ellipse;whiteSpace=wrap;html=1;" parent="1" vertex="1">
          <mxGeometry x="457" y="750" width="120" height="80" as="geometry" />
        </mxCell>
        <mxCell id="uniD2NlgxdXFvCSoE5NA-26" value="" style="ellipse;whiteSpace=wrap;html=1;" parent="1" vertex="1">
          <mxGeometry x="457" y="625" width="120" height="80" as="geometry" />
        </mxCell>
        <mxCell id="uniD2NlgxdXFvCSoE5NA-29" value="Xem thông tin hàng" style="text;html=1;strokeColor=none;fillColor=none;align=center;verticalAlign=middle;whiteSpace=wrap;rounded=0;" parent="1" vertex="1">
          <mxGeometry x="275" y="243" width="60" height="30" as="geometry" />
        </mxCell>
        <mxCell id="uniD2NlgxdXFvCSoE5NA-30" style="edgeStyle=orthogonalEdgeStyle;rounded=0;orthogonalLoop=1;jettySize=auto;html=1;exitX=0.5;exitY=1;exitDx=0;exitDy=0;" parent="1" source="uniD2NlgxdXFvCSoE5NA-29" target="uniD2NlgxdXFvCSoE5NA-29" edge="1">
          <mxGeometry relative="1" as="geometry" />
        </mxCell>
        <mxCell id="uniD2NlgxdXFvCSoE5NA-31" value="Text" style="text;html=1;strokeColor=none;fillColor=none;align=center;verticalAlign=middle;whiteSpace=wrap;rounded=0;" parent="1" vertex="1">
          <mxGeometry x="542" y="418" width="60" height="30" as="geometry" />
        </mxCell>
        <mxCell id="uniD2NlgxdXFvCSoE5NA-32" value="&lt;h1&gt;&lt;br&gt;&lt;/h1&gt;" style="text;html=1;strokeColor=none;fillColor=none;spacing=5;spacingTop=-20;whiteSpace=wrap;overflow=hidden;rounded=0;" parent="1" vertex="1">
          <mxGeometry x="255" y="364" width="190" height="120" as="geometry" />
        </mxCell>
        <mxCell id="uniD2NlgxdXFvCSoE5NA-33" value="Bình luận" style="text;html=1;strokeColor=none;fillColor=none;align=center;verticalAlign=middle;whiteSpace=wrap;rounded=0;" parent="1" vertex="1">
          <mxGeometry x="275" y="376" width="60" height="30" as="geometry" />
        </mxCell>
        <mxCell id="uniD2NlgxdXFvCSoE5NA-34" value="Đặt hàng, thanh toán" style="text;html=1;strokeColor=none;fillColor=none;align=center;verticalAlign=middle;whiteSpace=wrap;rounded=0;" parent="1" vertex="1">
          <mxGeometry x="275" y="513" width="60" height="30" as="geometry" />
        </mxCell>
        <mxCell id="uniD2NlgxdXFvCSoE5NA-35" value="Tìm kiếm hàng&amp;nbsp;" style="text;html=1;strokeColor=none;fillColor=none;align=center;verticalAlign=middle;whiteSpace=wrap;rounded=0;" parent="1" vertex="1">
          <mxGeometry x="275" y="650" width="60" height="30" as="geometry" />
        </mxCell>
        <mxCell id="uniD2NlgxdXFvCSoE5NA-36" value="Quản lí tài khoản&amp;nbsp;" style="text;html=1;strokeColor=none;fillColor=none;align=center;verticalAlign=middle;whiteSpace=wrap;rounded=0;" parent="1" vertex="1">
          <mxGeometry x="275" y="775" width="60" height="30" as="geometry" />
        </mxCell>
        <mxCell id="uniD2NlgxdXFvCSoE5NA-37" value="Quản lí số lượng mặt hàng" style="text;html=1;strokeColor=none;fillColor=none;align=center;verticalAlign=middle;whiteSpace=wrap;rounded=0;" parent="1" vertex="1">
          <mxGeometry x="487" y="243" width="60" height="30" as="geometry" />
        </mxCell>
        <mxCell id="uniD2NlgxdXFvCSoE5NA-38" value="Quản lí bình luận&amp;nbsp;" style="text;html=1;strokeColor=none;fillColor=none;align=center;verticalAlign=middle;whiteSpace=wrap;rounded=0;" parent="1" vertex="1">
          <mxGeometry x="487" y="376" width="60" height="30" as="geometry" />
        </mxCell>
        <mxCell id="uniD2NlgxdXFvCSoE5NA-39" value="Quản lí đơn hàng" style="text;html=1;strokeColor=none;fillColor=none;align=center;verticalAlign=middle;whiteSpace=wrap;rounded=0;" parent="1" vertex="1">
          <mxGeometry x="488" y="509" width="58" height="30" as="geometry" />
        </mxCell>
        <mxCell id="uniD2NlgxdXFvCSoE5NA-40" value="Tổng hợp thống kê" style="text;html=1;strokeColor=none;fillColor=none;align=center;verticalAlign=middle;whiteSpace=wrap;rounded=0;" parent="1" vertex="1">
          <mxGeometry x="487" y="650" width="60" height="30" as="geometry" />
        </mxCell>
        <mxCell id="uniD2NlgxdXFvCSoE5NA-41" value="Text" style="text;html=1;strokeColor=none;fillColor=none;align=center;verticalAlign=middle;whiteSpace=wrap;rounded=0;" parent="1" vertex="1">
          <mxGeometry x="487" y="775" width="60" height="30" as="geometry" />
        </mxCell>
        <mxCell id="nmO18yFluDHcEsKRJWV_-6" value="" style="endArrow=classic;html=1;rounded=0;entryX=0;entryY=0.5;entryDx=0;entryDy=0;" edge="1" parent="1" target="uniD2NlgxdXFvCSoE5NA-14">
          <mxGeometry width="50" height="50" relative="1" as="geometry">
            <mxPoint x="153" y="484" as="sourcePoint" />
            <mxPoint x="203" y="434" as="targetPoint" />
            <Array as="points" />
          </mxGeometry>
        </mxCell>
        <mxCell id="nmO18yFluDHcEsKRJWV_-7" value="" style="endArrow=classic;html=1;rounded=0;entryX=0;entryY=0.5;entryDx=0;entryDy=0;" edge="1" parent="1" target="uniD2NlgxdXFvCSoE5NA-16">
          <mxGeometry width="50" height="50" relative="1" as="geometry">
            <mxPoint x="150" y="509" as="sourcePoint" />
            <mxPoint x="200" y="459" as="targetPoint" />
            <Array as="points" />
          </mxGeometry>
        </mxCell>
        <mxCell id="nmO18yFluDHcEsKRJWV_-8" value="" style="endArrow=classic;html=1;rounded=0;entryX=0;entryY=0.5;entryDx=0;entryDy=0;" edge="1" parent="1" target="uniD2NlgxdXFvCSoE5NA-17">
          <mxGeometry width="50" height="50" relative="1" as="geometry">
            <mxPoint x="150" y="524" as="sourcePoint" />
            <mxPoint x="200" y="474" as="targetPoint" />
          </mxGeometry>
        </mxCell>
        <mxCell id="nmO18yFluDHcEsKRJWV_-9" value="" style="endArrow=classic;html=1;rounded=0;" edge="1" parent="1">
          <mxGeometry width="50" height="50" relative="1" as="geometry">
            <mxPoint x="150" y="539" as="sourcePoint" />
            <mxPoint x="241" y="652" as="targetPoint" />
          </mxGeometry>
        </mxCell>
        <mxCell id="nmO18yFluDHcEsKRJWV_-11" value="" style="endArrow=classic;html=1;rounded=0;" edge="1" parent="1">
          <mxGeometry width="50" height="50" relative="1" as="geometry">
            <mxPoint x="150" y="572" as="sourcePoint" />
            <mxPoint x="242" y="794" as="targetPoint" />
          </mxGeometry>
        </mxCell>
        <mxCell id="nmO18yFluDHcEsKRJWV_-13" value="" style="endArrow=classic;html=1;rounded=0;entryX=1;entryY=0.5;entryDx=0;entryDy=0;" edge="1" parent="1" target="uniD2NlgxdXFvCSoE5NA-24">
          <mxGeometry width="50" height="50" relative="1" as="geometry">
            <mxPoint x="660" y="524" as="sourcePoint" />
            <mxPoint x="710" y="489" as="targetPoint" />
            <Array as="points">
              <mxPoint x="684" y="524" />
            </Array>
          </mxGeometry>
        </mxCell>
        <mxCell id="nmO18yFluDHcEsKRJWV_-14" value="" style="endArrow=classic;html=1;rounded=0;entryX=1;entryY=0.5;entryDx=0;entryDy=0;" edge="1" parent="1" target="uniD2NlgxdXFvCSoE5NA-23">
          <mxGeometry width="50" height="50" relative="1" as="geometry">
            <mxPoint x="678" y="502" as="sourcePoint" />
            <mxPoint x="712" y="459" as="targetPoint" />
          </mxGeometry>
        </mxCell>
        <mxCell id="nmO18yFluDHcEsKRJWV_-15" value="" style="endArrow=classic;html=1;rounded=0;entryX=1;entryY=0.5;entryDx=0;entryDy=0;" edge="1" parent="1" target="uniD2NlgxdXFvCSoE5NA-22">
          <mxGeometry width="50" height="50" relative="1" as="geometry">
            <mxPoint x="678" y="468" as="sourcePoint" />
            <mxPoint x="698" y="356" as="targetPoint" />
          </mxGeometry>
        </mxCell>
        <mxCell id="nmO18yFluDHcEsKRJWV_-16" value="" style="endArrow=classic;html=1;rounded=0;entryX=1;entryY=0.5;entryDx=0;entryDy=0;" edge="1" parent="1" target="uniD2NlgxdXFvCSoE5NA-26">
          <mxGeometry width="50" height="50" relative="1" as="geometry">
            <mxPoint x="685" y="543" as="sourcePoint" />
            <mxPoint x="701" y="614" as="targetPoint" />
          </mxGeometry>
        </mxCell>
        <mxCell id="nmO18yFluDHcEsKRJWV_-17" value="" style="endArrow=classic;html=1;rounded=0;entryX=1;entryY=0.5;entryDx=0;entryDy=0;" edge="1" parent="1" target="uniD2NlgxdXFvCSoE5NA-25">
          <mxGeometry width="50" height="50" relative="1" as="geometry">
            <mxPoint x="689" y="588" as="sourcePoint" />
            <mxPoint x="711" y="745" as="targetPoint" />
          </mxGeometry>
        </mxCell>
      </root>
    </mxGraphModel>
  </diagram>
</mxfile>
